# xmcd
#
# Track frame offsets: 
#        150
#        19322
#        35095
#        48802
#        74922
#        91572
#        105037
#        122402
#        134660
#        148740
#        163310
#        182400
#
# Disc length: 2645 seconds
#
# Revision: 6
# Processed by: cddbd v1.5.2PL0 Copyright (c) Steve Scherf et al.
# Submitted via: ExactAudioCopyFreeDBPlugin 1.0
#
DISCID=a30a530c
DTITLE=Neil Diamond - His 12 Greatest Hits (1993 Reissue)
DYEAR=1993
DGENRE=Pop
TTITLE0=Sweet Caroline (Live)
TTITLE1=Brother Love's Traveling Salvation Show
TTITLE2=Shilo
TTITLE3=Holly Holy (Live)
TTITLE4=Brooklyn Roads
TTITLE5=Cracklin' Rosie
TTITLE6=Play Me
TTITLE7=Done Too Soon
TTITLE8=Stones
TTITLE9=Song Sung Blue
TTITLE10=Soolaimon
TTITLE11=I Am...I Said
EXTD=YEAR: 1993
EXTT0=
EXTT1=
EXTT2=
EXTT3=
EXTT4=
EXTT5=
EXTT6=
EXTT7=
EXTT8=
EXTT9=
EXTT10=
EXTT11=
PLAYORDER=
